<svg width="33" height="32" viewBox="0 0 33 32" fill="none" xmlns="http://www.w3.org/2000/svg">
<g clip-path="url(#clip0_3_84)">
<path d="M4.85873 9.61499L16.7712 16.135L28.6837 9.61499" stroke="black" stroke-width="2" stroke-linecap="round" stroke-linejoin="round"/>
<path d="M17.2512 3.12499L28.2512 9.14749C28.4083 9.23343 28.5394 9.35996 28.6309 9.51388C28.7224 9.6678 28.7708 9.84345 28.7712 10.0225V21.9775C28.7708 22.1565 28.7224 22.3322 28.6309 22.4861C28.5394 22.64 28.4083 22.7666 28.2512 22.8525L17.2512 28.875C17.1041 28.9555 16.939 28.9977 16.7712 28.9977C16.6035 28.9977 16.4384 28.9555 16.2912 28.875L5.29124 22.8525C5.13417 22.7666 5.00306 22.64 4.91159 22.4861C4.82012 22.3322 4.77165 22.1565 4.77124 21.9775V10.0225C4.77165 9.84345 4.82012 9.6678 4.91159 9.51388C5.00306 9.35996 5.13417 9.23343 5.29124 9.14749L16.2912 3.12499C16.4384 3.04446 16.6035 3.00226 16.7712 3.00226C16.939 3.00226 17.1041 3.04446 17.2512 3.12499Z" stroke="black" stroke-width="2" stroke-linecap="round" stroke-linejoin="round"/>
<path d="M16.7712 16.1362V29" stroke="black" stroke-width="2" stroke-linecap="round" stroke-linejoin="round"/>
</g>
<defs>
<clipPath id="clip0_3_84">
<rect width="32" height="32" fill="white" transform="translate(0.77124)"/>
</clipPath>
</defs>
</svg>
